HIERARCHY
ROOT Hips
{
	OFFSET 0.000000 0.000000 0.000000
	CHANNELS 6 Xposition Yposition Zposition Xrotation Yrotation Zrotation
	JOINT LeftUpLeg_virtual
	{
		OFFSET 0.000000 0.000000 0.000000
		CHANNELS 3 Xrotation Yrotation Zrotation
		JOINT LeftUpLeg
		{
			OFFSET 15.427100 -6.655098 0.678600
			CHANNELS 3 Xrotation Yrotation Zrotation
			JOINT LeftLeg
			{
				OFFSET 4.081073 -39.591068 13.024000
				CHANNELS 3 Xrotation Yrotation Zrotation
				JOINT LeftFoot
				{
					OFFSET -4.081074 -37.707932 -15.979700
					CHANNELS 3 Xrotation Yrotation Zrotation
					JOINT LeftToeBase
					{
						OFFSET 5.346399 -15.068900 20.645000
						CHANNELS 3 Xrotation Yrotation Zrotation
						JOINT LeftToe_End
						{
							OFFSET 2.754700 0.931300 11.300900
							CHANNELS 3 Xrotation Yrotation Zrotation
							End Site
							{
								OFFSET 0 0 0
							}
						}
					}
				}
			}
		}
	}
	JOINT RightUpLeg_virtual
	{
		OFFSET 0.000000 0.000000 0.000000
		CHANNELS 3 Xrotation Yrotation Zrotation
		JOINT RightUpLeg
		{
			OFFSET -15.569500 -6.655098 0.678600
			CHANNELS 3 Xrotation Yrotation Zrotation
			JOINT RightLeg
			{
				OFFSET -4.081825 -39.591045 13.023800
				CHANNELS 3 Xrotation Yrotation Zrotation
				JOINT RightFoot
				{
					OFFSET 4.081824 -37.707954 -15.979600
					CHANNELS 3 Xrotation Yrotation Zrotation
					JOINT RightToeBase
					{
						OFFSET -5.346400 -15.068900 20.645000
						CHANNELS 3 Xrotation Yrotation Zrotation
						JOINT RightToe_End
						{
							OFFSET -2.754700 0.931300 11.300900
							CHANNELS 3 Xrotation Yrotation Zrotation
							End Site
							{
								OFFSET 0 0 0
							}
						}
					}
				}
			}
		}
	}
	JOINT Spine_virtual
	{
		OFFSET 0.000000 0.000000 0.000000
		CHANNELS 3 Xrotation Yrotation Zrotation
		JOINT Spine
		{
			OFFSET -0.279200 12.230698 -2.892100
			CHANNELS 3 Xrotation Yrotation Zrotation
			JOINT Spine1
			{
				OFFSET -0.232667 10.192268 -1.242267
				CHANNELS 3 Xrotation Yrotation Zrotation
				JOINT Spine1_split
				{
					OFFSET -0.232667 10.192268 -1.242267
					CHANNELS 3 Xrotation Yrotation Zrotation
					JOINT Spine2
					{
						OFFSET -0.232667 10.192268 -1.242267
						CHANNELS 3 Xrotation Yrotation Zrotation
						JOINT Neck_virtual
						{
							OFFSET 0.000000 0.000000 0.000000
							CHANNELS 3 Xrotation Yrotation Zrotation
							JOINT Neck
							{
								OFFSET -0.418800 17.814194 8.416900
								CHANNELS 3 Xrotation Yrotation Zrotation
								JOINT Head
								{
									OFFSET 0.000000 7.031097 3.806800
									CHANNELS 3 Xrotation Yrotation Zrotation
									JOINT HeadTop_End
									{
										OFFSET 0.000000 24.646606 12.978600
										CHANNELS 3 Xrotation Yrotation Zrotation
										End Site
										{
											OFFSET 0 0 0
										}
									}
								}
							}
						}
						JOINT LeftShoulder_virtual
						{
							OFFSET 0.000000 0.000000 0.000000
							CHANNELS 3 Xrotation Yrotation Zrotation
							JOINT LeftShoulder
							{
								OFFSET 8.476499 7.247704 -3.868750
								CHANNELS 3 Xrotation Yrotation Zrotation
								JOINT LeftShoulder_split
								{
									OFFSET 8.476499 7.247704 -3.868750
									CHANNELS 3 Xrotation Yrotation Zrotation
									JOINT LeftArm
									{
										OFFSET 9.308998 -2.777710 0.208600
										CHANNELS 3 Xrotation Yrotation Zrotation
										JOINT LeftForeArm
										{
											OFFSET 29.972298 0.000000 0.000000
											CHANNELS 3 Xrotation Yrotation Zrotation
											JOINT LeftHand
											{
												OFFSET 26.026505 0.000000 0.000000
												CHANNELS 3 Xrotation Yrotation Zrotation
												End Site
												{
													OFFSET 0 0 0
												}
											}
										}
									}
								}
							}
						}
						JOINT RightShoulder_virtual
						{
							OFFSET 0.000000 0.000000 0.000000
							CHANNELS 3 Xrotation Yrotation Zrotation
							JOINT RightShoulder
							{
								OFFSET -7.570500 7.247704 -3.868750
								CHANNELS 3 Xrotation Yrotation Zrotation
								JOINT RightShoulder_split
								{
									OFFSET -7.570500 7.247704 -3.868750
									CHANNELS 3 Xrotation Yrotation Zrotation
									JOINT RightArm
									{
										OFFSET -9.308998 -2.777710 0.208500
										CHANNELS 3 Xrotation Yrotation Zrotation
										JOINT RightForeArm
										{
											OFFSET -29.972300 0.000000 0.000000
											CHANNELS 3 Xrotation Yrotation Zrotation
											JOINT RightHand
											{
												OFFSET -26.026505 0.000000 0.000000
												CHANNELS 3 Xrotation Yrotation Zrotation
												End Site
												{
													OFFSET 0 0 0
												}
											}
										}
									}
								}
							}
						}
					}
				}
			}
		}
	}
}
MOTION
Frames: 10
Frame Time: 0.03333333
5.767887 53.546783 125.638237 0.000000 0.000000 0.000000 18.537432 -58.037955 30.043246 -62.873968 -44.698325 41.647751 83.367042 -1.260258 -43.980937 1.452980 -2.486546 -24.034667 4.140157 1.025410 -5.003304 0.000000 0.000000 0.000000 16.211234 -57.025878 30.359453 -69.529215 29.996128 -31.515456 94.728918 12.235835 4.089373 -30.600333 -3.655599 14.796334 7.008532 -0.465191 0.654442 0.000000 0.000000 0.000000 14.678217 -59.331511 26.579466 36.057371 -2.642104 -11.693059 0.940969 4.849407 -1.338512 1.228224 -1.556386 1.529226 0.000000 0.000000 0.000000 1.166989 5.592683 -0.606397 -13.807342 18.079417 -1.606587 4.223053 22.011791 -19.169595 0.000000 0.000000 0.000000 4.507057 5.383688 -0.867386 3.586342 -18.597647 -3.630912 -4.692297 0.568553 -3.059548 -20.592838 23.195240 -24.812795 -50.887853 -79.074589 -41.040103 0.000000 0.000000 0.000000 4.371088 5.844226 -0.835587 -1.821985 30.213984 19.646138 3.130596 6.275124 -0.459436 -50.776429 -6.292438 19.779196 -34.623445 58.405849 29.805194 0.000000 0.000000 0.000000 
6.298846 54.015648 126.273125 0.000000 0.000000 0.000000 20.132975 -55.774201 29.608173 -65.448416 -45.942957 41.228378 86.090990 -1.099415 -46.798510 1.037863 -1.870744 -23.837990 3.563760 0.987395 -2.853318 0.000000 0.000000 0.000000 17.782923 -56.148769 29.866016 -70.461188 29.301457 -32.944953 93.746423 12.492944 5.429772 -32.394689 -6.101064 15.611620 10.005563 -0.144496 0.269714 0.000000 0.000000 0.000000 15.774807 -57.417521 25.759333 37.971159 -3.253249 -12.418384 0.709298 4.747255 -1.007262 1.212888 -1.618332 1.366397 0.000000 0.000000 0.000000 1.014769 5.340144 -0.068898 -14.735349 19.067358 -1.609154 1.763972 21.813213 -17.367115 0.000000 0.000000 0.000000 4.555215 5.205326 -0.459605 4.746061 -18.386550 -2.659908 -5.489843 0.049878 -3.497027 -20.681362 18.981506 -25.923056 -30.062084 -75.440095 -21.461841 0.000000 0.000000 0.000000 4.152542 5.664675 -0.537406 -1.161145 29.706648 20.671337 4.716299 6.324858 0.540699 -53.616442 -3.965572 22.668115 -35.097009 59.621616 30.473633 0.000000 0.000000 0.000000 
6.652497 55.180374 126.285095 0.000000 0.000000 0.000000 21.663852 -54.389261 29.306696 -64.898634 -45.554841 41.214400 86.680947 -0.072895 -47.932919 0.012690 -1.760897 -23.185291 -0.464785 0.832699 -0.484981 0.000000 0.000000 0.000000 19.717359 -55.910897 29.627083 -70.522700 27.853969 -33.687033 91.477516 12.459535 6.225527 -33.177941 -8.009697 16.592567 12.266090 0.250704 -0.366445 0.000000 0.000000 0.000000 17.618210 -55.827384 25.420741 38.088898 -3.489410 -12.888063 0.570302 4.753466 -0.817324 1.246805 -2.041447 1.100665 0.000000 0.000000 0.000000 1.322784 5.263819 0.194970 -15.827478 19.859998 -1.223675 -0.650773 21.490191 -15.367270 0.000000 0.000000 0.000000 4.660582 5.150890 -0.178496 5.229099 -18.321808 -1.768451 -6.031858 -0.554582 -4.433302 -21.923350 14.892010 -26.356098 -19.849295 -71.246680 -12.232372 0.000000 0.000000 0.000000 4.066608 5.545771 -0.368854 -0.619423 28.366670 21.266748 6.153583 6.253314 1.261615 -57.102994 -3.862125 24.445075 -39.738744 63.692901 35.590019 0.000000 0.000000 0.000000 
6.942240 56.867523 126.084908 0.000000 0.000000 0.000000 22.751818 -54.245854 29.192341 -62.841237 -43.603637 41.189961 85.945466 1.174926 -47.648810 -1.220994 -2.249358 -21.749269 -5.184443 0.546533 1.314090 0.000000 0.000000 0.000000 21.561500 -56.202536 29.592867 -69.647439 26.254663 -33.607772 87.894590 12.285716 6.082509 -32.166718 -9.019264 18.321436 12.556919 0.588144 -0.957094 0.000000 0.000000 0.000000 19.814877 -54.999381 25.590175 36.602946 -3.399138 -13.266982 0.611988 4.760244 -0.686662 1.237052 -2.628999 0.875090 0.000000 0.000000 0.000000 2.001441 5.256821 0.276414 -17.084125 20.475483 -0.664823 -2.852099 21.184684 -13.370519 0.000000 0.000000 0.000000 4.801914 5.153741 0.060041 4.984026 -18.587219 -1.060755 -6.220165 -0.872014 -5.399572 -23.714900 11.226398 -26.686714 -14.789351 -68.070184 -8.005473 0.000000 0.000000 0.000000 4.094257 5.417368 -0.223876 -0.250516 26.493180 21.478788 7.150604 6.128609 1.892744 -59.394027 -5.812553 25.488400 -50.008395 69.024041 46.487480 0.000000 0.000000 0.000000 
7.217452 58.748390 126.401588 0.000000 0.000000 0.000000 22.842613 -54.912709 28.805756 -60.278912 -40.589164 40.702057 84.224115 2.383267 -46.176071 -2.765227 -2.669196 -19.187347 -7.421084 0.502394 1.707447 0.000000 0.000000 0.000000 22.828082 -56.750689 29.453989 -67.553781 24.554441 -33.007391 83.182654 11.859598 5.072301 -29.696064 -9.090565 20.271283 10.855684 0.784366 -1.217220 0.000000 0.000000 0.000000 21.291119 -54.846091 25.683610 33.987779 -3.110296 -13.590659 0.880765 4.677036 -0.587300 1.235667 -2.534315 0.904709 0.000000 0.000000 0.000000 2.874610 5.190715 0.231311 -18.467817 20.898878 -0.059243 -4.662500 21.086228 -11.578490 0.000000 0.000000 0.000000 5.019443 5.085293 0.280604 4.086830 -19.164696 -0.727857 -5.631800 -1.094345 -5.735379 -25.389386 8.342898 -27.286111 -11.867531 -66.456074 -5.832986 0.000000 0.000000 0.000000 4.251429 5.231621 -0.060389 -0.137740 24.501422 21.142287 7.477047 5.884936 2.659429 -59.861082 -9.105912 26.240755 -67.454217 73.452510 64.579862 0.000000 0.000000 0.000000 
7.304348 60.799286 127.352043 0.000000 0.000000 0.000000 21.882490 -56.011690 28.037346 -57.452252 -36.801124 39.277180 81.713200 3.608328 -43.785894 -5.110578 -2.505298 -15.750853 -5.671257 0.915526 0.657151 0.000000 0.000000 0.000000 23.013516 -57.253982 28.892510 -64.252068 22.496155 -32.287035 77.603537 11.230604 3.565416 -26.986035 -8.245987 21.369727 8.604752 0.794120 -1.119835 0.000000 0.000000 0.000000 21.664312 -55.144307 25.527356 30.860431 -2.702893 -13.787278 1.418552 4.485976 -0.604771 0.893784 -2.109633 1.277764 0.000000 0.000000 0.000000 3.873550 4.970740 0.038202 -19.903897 21.204186 0.482109 -5.951906 21.366222 -10.129172 0.000000 0.000000 0.000000 5.317012 4.866433 0.367628 2.672110 -19.911960 -0.888800 -4.519533 -1.061362 -5.231431 -26.614168 6.313354 -28.176011 -9.320464 -65.159574 -4.024679 0.000000 0.000000 0.000000 4.518649 4.931517 0.026746 -0.276114 22.664318 20.038655 6.866025 5.522297 3.520032 -58.560526 -12.841537 26.825991 -90.463526 75.476937 88.113053 0.000000 0.000000 0.000000 
7.228405 63.035770 128.924927 0.000000 0.000000 0.000000 19.894630 -57.157147 26.599905 -53.785305 -32.434485 37.151701 77.617382 4.770775 -40.588058 -7.946247 -2.166797 -12.970269 -2.581525 1.548116 -0.673741 0.000000 0.000000 0.000000 21.681630 -57.922784 27.540441 -59.991409 19.763731 -32.007438 72.049343 10.388182 1.951325 -24.964919 -6.738884 20.803406 7.450966 0.637028 -0.751379 0.000000 0.000000 0.000000 20.507609 -55.757607 24.741136 27.653221 -2.281868 -13.709819 2.204485 4.153055 -0.855917 0.675569 -1.808012 1.343406 0.000000 0.000000 0.000000 4.889975 4.533286 -0.342671 -21.062929 21.378412 1.009861 -6.592605 22.061426 -8.986754 0.000000 0.000000 0.000000 5.706977 4.466131 0.196821 0.938996 -20.651454 -1.543045 -3.583379 -0.934252 -3.969922 -27.299441 4.928852 -29.308693 -6.505745 -62.657191 -2.041342 0.000000 0.000000 0.000000 4.915226 4.483620 -0.096754 -0.615342 21.088545 17.965230 5.412853 4.872379 4.180267 -56.088308 -16.235793 27.357705 -111.322064 75.177570 109.317820 0.000000 0.000000 0.000000 
6.887748 65.537560 130.882416 0.000000 0.000000 0.000000 16.915749 -57.989877 24.391326 -48.864198 -27.692411 34.635882 71.762011 5.591954 -36.494712 -10.115643 -2.200088 -11.615802 -1.727837 2.116647 -1.212749 0.000000 0.000000 0.000000 18.918231 -58.459753 25.327544 -55.031145 16.133895 -32.424588 67.004217 9.487802 0.554517 -23.665444 -4.911399 18.930942 7.877422 0.384395 -0.372927 0.000000 0.000000 0.000000 18.001037 -56.361956 23.218357 24.694880 -1.928316 -13.256825 3.138682 3.663664 -1.412004 0.656557 -1.442829 1.419690 0.000000 0.000000 0.000000 5.921909 3.879454 -0.938572 -21.759764 21.432135 1.589693 -6.486682 23.157109 -8.060398 0.000000 0.000000 0.000000 6.187704 3.845741 -0.313840 -0.925466 -21.071521 -2.630844 -3.032006 -0.528282 -2.490219 -27.300312 3.784502 -30.646311 -3.703691 -57.803809 -0.160351 0.000000 0.000000 0.000000 5.493647 3.872947 -0.506277 -1.071816 19.683425 15.008403 3.729183 4.164136 4.298218 -53.152259 -18.885632 27.771518 -125.707036 73.852957 123.954738 0.000000 0.000000 0.000000 
6.263271 68.367584 132.640259 0.000000 0.000000 0.000000 13.347134 -58.245456 21.546535 -43.122522 -22.779338 31.787735 64.800464 5.753723 -31.836601 -10.764315 -2.752150 -11.001658 -3.016024 2.356063 -0.835444 0.000000 0.000000 0.000000 15.138602 -58.624408 22.331042 -49.639339 11.669508 -33.358217 62.156333 8.811591 -0.546619 -22.353329 -2.969749 17.304617 7.946561 0.110317 -0.260028 0.000000 0.000000 0.000000 14.547514 -56.714250 21.029051 22.059009 -1.651207 -12.373077 4.135966 3.006450 -2.253322 1.038758 -1.659558 1.541581 0.000000 0.000000 0.000000 6.957541 3.048364 -1.698435 -21.976759 21.399307 2.340238 -5.804867 24.295290 -7.146988 0.000000 0.000000 0.000000 6.754200 3.052327 -1.133893 -2.758306 -20.909285 -3.870274 -3.135667 -0.177658 -1.286599 -26.608841 2.394771 -32.206517 -1.605949 -50.665585 0.934852 0.000000 0.000000 0.000000 6.192520 3.101145 -1.187911 -1.635595 18.440662 11.623702 2.422241 3.384491 3.912493 -50.077683 -20.596060 28.143069 -134.884912 72.460029 133.438086 0.000000 0.000000 0.000000 
5.449083 71.469070 134.028870 0.000000 0.000000 0.000000 9.929406 -58.012813 18.370986 -37.298789 -17.854492 29.203539 57.094910 5.173145 -27.227951 -9.920787 -3.494779 -10.318587 -4.654449 2.232658 -0.115167 0.000000 0.000000 0.000000 10.847667 -58.536504 18.722720 -43.838060 6.721765 -34.262712 57.099941 8.393818 -1.413803 -20.337937 -1.099663 16.945836 6.067740 -0.165863 -0.471830 0.000000 0.000000 0.000000 10.896183 -56.944216 18.365381 19.790296 -1.454182 -11.057755 5.112141 2.202739 -3.241034 1.806350 -2.041134 1.318167 0.000000 0.000000 0.000000 7.894248 2.133182 -2.535905 -21.794702 21.287256 3.426002 -4.874802 25.233780 -6.053286 0.000000 0.000000 0.000000 7.389228 2.123678 -2.126142 -4.432844 -20.102365 -4.877007 -3.493058 0.279747 -0.579810 -25.681096 0.670539 -33.810830 -0.230306 -42.993544 1.244717 0.000000 0.000000 0.000000 6.972504 2.213036 -2.013157 -2.339551 17.385427 8.315029 1.779145 2.640300 3.295928 -46.975900 -21.413596 28.592509 -140.749189 71.423718 139.834053 0.000000 0.000000 0.000000 
